<svg xmlns="http://www.w3.org/2000/svg" xmlns:xlink="http://www.w3.org/1999/xlink" width="150.68" height="148.46" viewBox="0 0 150.68 148.46">
  <defs>
    <radialGradient id="radial-gradient" cx="0.076" cy="0.019" r="1.465" gradientTransform="translate(0.001)" gradientUnits="objectBoundingBox">
      <stop offset="0" stop-color="#f6f6f7"/>
      <stop offset="0.477" stop-color="#f9f9fa"/>
      <stop offset="0.715" stop-color="#fff"/>
    </radialGradient>
  </defs>
  <g id="Grupo_1099967" data-name="Grupo 1099967" transform="translate(-1.397 -1.698)">
    <g id="Grupo_26585" data-name="Grupo 26585" transform="translate(138.466 40.246)">
      <path id="Trazado_67426" data-name="Trazado 67426" d="M1525.378,4814.939a.713.713,0,0,1-.361-.1.728.728,0,0,1-.271-.993,72.909,72.909,0,0,0,3.631-7.258.728.728,0,1,1,1.337.578,74.529,74.529,0,0,1-3.7,7.4A.725.725,0,0,1,1525.378,4814.939Zm6.491-15.023a.731.731,0,0,1-.7-.941,72.922,72.922,0,0,0,1.927-7.883.728.728,0,1,1,1.431.267,74.642,74.642,0,0,1-1.966,8.041A.727.727,0,0,1,1531.87,4799.916Zm3-16.093a.5.5,0,0,1-.054,0,.726.726,0,0,1-.673-.778c.132-1.8.2-3.622.2-5.419,0-.9-.017-1.808-.05-2.7a.729.729,0,0,1,.7-.755.741.741,0,0,1,.755.7c.034.906.051,1.832.051,2.75,0,1.832-.068,3.691-.2,5.524A.727.727,0,0,1,1534.868,4783.823Zm-.611-16.354a.728.728,0,0,1-.719-.62,71.784,71.784,0,0,0-1.655-7.942.728.728,0,0,1,1.407-.377,73.422,73.422,0,0,1,1.688,8.1.728.728,0,0,1-.611.828A.687.687,0,0,1,1534.257,4767.469Zm-4.239-15.807a.728.728,0,0,1-.678-.463,72.234,72.234,0,0,0-3.4-7.368.728.728,0,0,1,1.287-.683,73.767,73.767,0,0,1,3.464,7.518.729.729,0,0,1-.678,1Z" transform="translate(-1524.651 -4742.761)" fill="#00223d"/>
    </g>
    <g id="Grupo_26586" data-name="Grupo 26586" transform="translate(1.398 1.698)">
      <path id="Trazado_67427" data-name="Trazado 67427" d="M1432.688,4843.623c-2.652,0-5.306-.128-7.89-.381a.728.728,0,1,1,.142-1.449c2.537.248,5.145.373,7.749.373h.366a.713.713,0,0,1,.732.724.727.727,0,0,1-.723.732Zm8.555-.451a.728.728,0,0,1-.076-1.451,66.754,66.754,0,0,0,8-1.331.728.728,0,1,1,.332,1.417,67.545,67.545,0,0,1-8.174,1.361C1441.3,4843.169,1441.27,4843.171,1441.243,4843.171Zm-24.475-1.17a.751.751,0,0,1-.154-.017,69.848,69.848,0,0,1-7.98-2.21.728.728,0,1,1,.471-1.378,68.3,68.3,0,0,0,7.814,2.163.729.729,0,0,1-.151,1.441Zm40.363-2.679a.729.729,0,0,1-.268-1.407,42.593,42.593,0,0,0,7.031-3.36.728.728,0,0,1,.808,1.212,42.817,42.817,0,0,1-7.3,3.5A.723.723,0,0,1,1457.131,4839.323Zm-55.844-2.617a.736.736,0,0,1-.314-.069,71.949,71.949,0,0,1-7.242-4.017.728.728,0,0,1,.778-1.23,70.176,70.176,0,0,0,7.094,3.933.728.728,0,0,1-.316,1.384Zm-13.834-8.74a.714.714,0,0,1-.456-.163,74.566,74.566,0,0,1-6.154-5.535.727.727,0,0,1,1.031-1.026,74.289,74.289,0,0,0,6.035,5.429.729.729,0,0,1-.457,1.3Zm-11.559-11.594a.728.728,0,0,1-.568-.272,75.458,75.458,0,0,1-4.818-6.728.728.728,0,1,1,1.228-.781,74.346,74.346,0,0,0,4.726,6.6.729.729,0,0,1-.568,1.185Zm-8.777-13.812a.729.729,0,0,1-.655-.409,73.782,73.782,0,0,1-3.209-7.63.728.728,0,0,1,1.372-.486,72.326,72.326,0,0,0,3.145,7.477.727.727,0,0,1-.334.975A.717.717,0,0,1,1367.116,4802.56Zm-5.483-15.419a.729.729,0,0,1-.708-.563,73.548,73.548,0,0,1-1.417-8.156.728.728,0,1,1,1.447-.168,72.411,72.411,0,0,0,1.389,8,.728.728,0,0,1-.544.873A.645.645,0,0,1,1361.633,4787.141Zm-1.891-16.258a.728.728,0,0,1-.729-.725v-.292a75.686,75.686,0,0,1,.4-7.769l.022-.2a.728.728,0,1,1,1.448.15l-.021.21a74.187,74.187,0,0,0-.394,7.612v.285a.727.727,0,0,1-.724.731Zm1.738-16.275a.739.739,0,0,1-.158-.019.727.727,0,0,1-.553-.867,74.181,74.181,0,0,1,2.23-7.969.728.728,0,1,1,1.378.469,73.015,73.015,0,0,0-2.187,7.814A.729.729,0,0,1,1361.48,4754.608Zm5.284-15.488a.725.725,0,0,1-.658-1.037,74.173,74.173,0,0,1,3.947-7.276.729.729,0,0,1,1.24.766,72.646,72.646,0,0,0-3.871,7.131A.725.725,0,0,1,1366.764,4739.12Zm8.6-13.924a.708.708,0,0,1-.449-.157.727.727,0,0,1-.123-1.021,74.619,74.619,0,0,1,5.466-6.217.728.728,0,0,1,1.038,1.021,73.426,73.426,0,0,0-5.359,6.1A.727.727,0,0,1,1375.364,4725.2Zm11.477-11.674a.728.728,0,0,1-.46-1.293,74.776,74.776,0,0,1,6.7-4.857.728.728,0,0,1,.788,1.225,73.315,73.315,0,0,0-6.571,4.763A.715.715,0,0,1,1386.841,4713.522Zm13.767-8.851a.728.728,0,0,1-.323-1.381,74.14,74.14,0,0,1,7.612-3.253.728.728,0,0,1,.5,1.369,72.585,72.585,0,0,0-7.461,3.188A.721.721,0,0,1,1400.608,4704.671Zm15.386-5.577a.728.728,0,0,1-.17-1.436,73.517,73.517,0,0,1,8.146-1.476.728.728,0,0,1,.179,1.444,72.734,72.734,0,0,0-7.986,1.447A.726.726,0,0,1,1415.994,4699.094Z" transform="translate(-1359.014 -4696.177)" fill="#00223d"/>
    </g>
    <g id="Grupo_47319" data-name="Grupo 47319" transform="translate(13.262 12.82)">
      <g id="Grupo_18423" data-name="Grupo 18423" transform="translate(0 0)">
        <g id="Grupo_18421" data-name="Grupo 18421">
          <g id="Grupo_18420" data-name="Grupo 18420">
            <g id="Grupo_18419" data-name="Grupo 18419">
              <path id="Trazado_40936" data-name="Trazado 40936" d="M318.993,2207.9a62.185,62.185,0,1,1-62.184-62.183A62.184,62.184,0,0,1,318.993,2207.9Z" transform="translate(-194.623 -2145.721)" fill="#fff"/>
            </g>
          </g>
        </g>
        <path id="Trazado_40937" data-name="Trazado 40937" d="M318.258,2207.1a62.184,62.184,0,1,0-62.184,62.187A61.936,61.936,0,0,0,318.258,2207.1Z" transform="translate(-193.888 -2144.92)" fill="url(#radial-gradient)"/>
        <path id="Trazado_40938" data-name="Trazado 40938" d="M297.008,2200.6a47.466,47.466,0,1,0-47.466,47.465A47.289,47.289,0,0,0,297.008,2200.6Z" transform="translate(-187.169 -2138.208)" fill="none" stroke="#825ec3" stroke-miterlimit="10" stroke-width="4"/>
        <g id="Grupo_18422" data-name="Grupo 18422" transform="translate(11.017 34.912)">
          <path id="Trazado_40939" data-name="Trazado 40939" d="M307.611,2164.488a62.192,62.192,0,0,1-107.066,61.928,62,62,0,0,0,107.066-61.928Z" transform="translate(-200.545 -2164.488)" fill="#eceef0"/>
        </g>
        <g id="Grupo_47321" data-name="Grupo 47321" transform="translate(96.082 101.727)">
          <g id="Grupo_26675" data-name="Grupo 26675">
            <g id="Grupo_26674" data-name="Grupo 26674">
              <path id="Trazado_67515" data-name="Trazado 67515" d="M1769.069,4843.917l-2.516-6.2a9.266,9.266,0,0,0-2.006-3.041l-8.851-8.935a2.325,2.325,0,0,0-3.287.025,2.15,2.15,0,0,0-.024,3.14l4.362,4.361-6.166-6.164a2.534,2.534,0,0,0-3.585,3.583l5.818,5.819-1.043-1.043-5.818-5.818a2.535,2.535,0,0,0-3.586,3.585l6.862,6.861-13.348-13.35a2.536,2.536,0,0,0-3.585,3.588l13.126,13.124.078.1-6.31-2.091a2.625,2.625,0,0,0-1.408,5.055l11.281,6.153,8.559,2.764Z" transform="translate(-1730.845 -4824.348)" fill="#fff"/>
              <path id="Trazado_67516" data-name="Trazado 67516" d="M1757.47,4856.017a.737.737,0,0,1-.224-.035l-8.559-2.764a.813.813,0,0,1-.125-.054l-11.222-6.122a3.353,3.353,0,0,1,1.872-6.433l.055.017,3.435,1.138-11.072-11.07a3.188,3.188,0,0,1-.937-2.295,3.293,3.293,0,0,1,3.257-3.258h.026a3.184,3.184,0,0,1,2.268.938l4.589,4.589a3.287,3.287,0,0,1,3.189-2.624h.025a3.213,3.213,0,0,1,1.373.3,3.293,3.293,0,0,1,3.229-2.846h.025a3.179,3.179,0,0,1,2.269.936,3.093,3.093,0,0,1,.8-1.335,3.056,3.056,0,0,1,4.317-.024l8.853,8.937a9.932,9.932,0,0,1,2.164,3.279l2.516,6.2a.729.729,0,0,1-.158.787l-11.446,11.522A.732.732,0,0,1,1757.47,4856.017Zm-8.271-4.164,8.07,2.605,10.793-10.865-2.336-5.754a8.516,8.516,0,0,0-1.849-2.8l-8.851-8.934a1.6,1.6,0,0,0-2.255.027,1.537,1.537,0,0,0-.48,1.065,1.446,1.446,0,0,0,.456,1.044l4.362,4.363a.727.727,0,0,1-1.029,1.028l-6.166-6.164a1.76,1.76,0,0,0-1.253-.512,1.835,1.835,0,0,0-1.812,1.813,1.74,1.74,0,0,0,.511,1.253l5.819,5.818a.729.729,0,1,1-1.03,1.031l-6.862-6.862a1.729,1.729,0,0,0-1.253-.511,1.819,1.819,0,0,0-1.275.537,1.793,1.793,0,0,0-.027,2.53l6.862,6.861a.728.728,0,0,1-1.03,1.028l-13.348-13.349a1.746,1.746,0,0,0-1.239-.51,1.832,1.832,0,0,0-1.826,1.813,1.739,1.739,0,0,0,.51,1.254l13.126,13.125a.628.628,0,0,1,.071.082l.077.105a.728.728,0,0,1-.814,1.123l-6.281-2.081a1.9,1.9,0,0,0-2.288,1.478,1.894,1.894,0,0,0,1.3,2.182.751.751,0,0,1,.133.055Z" transform="translate(-1730.693 -4824.196)" fill="#00223d"/>
            </g>
          </g>
          <g id="Grupo_26676" data-name="Grupo 26676" transform="translate(25.252 18.13)">
            <rect id="Rect치ngulo_25697" data-name="Rect치ngulo 25697" width="18.444" height="4.219" transform="translate(0.728 13.77) rotate(-45)" fill="#673ab7"/>
            <path id="Trazado_67517" data-name="Trazado 67517" d="M1764.919,4863.585a.731.731,0,0,1-.515-.212l-2.983-2.985a.727.727,0,0,1,0-1.029l13.042-13.042a.73.73,0,0,1,1.03,0l2.983,2.984a.727.727,0,0,1,0,1.029l-13.042,13.043A.729.729,0,0,1,1764.919,4863.585Zm-1.954-3.711,1.954,1.952,12.012-12.011-1.954-1.954Z" transform="translate(-1761.208 -4846.104)" fill="#00223d"/>
          </g>
        </g>
      </g>
    </g>
    <path id="Trazado_71263" data-name="Trazado 71263" d="M213.36,599.021c.61-2.731,1.249-5.456,1.826-8.195q2.028-9.633,4-19.276c.049-.235.05-.48.094-.929-1.02,0-1.974.011-2.928,0-1.379-.02-2.238-.755-2.232-1.888.006-1.118.878-1.866,2.254-1.866q28.352-.008,56.7,0c1.4,0,2.247.714,2.27,1.849.025,1.163-.862,1.889-2.336,1.9-1.02.011-2.041.013-3.061.025a1.646,1.646,0,0,0-.366.141c.537,2.387,1.077,4.8,1.621,7.209q2.247,9.959,4.5,19.917a9.149,9.149,0,0,0,.4,1.111v1.471c-.553.811-1.191,1.472-2.3,1.231-1.174-.255-1.41-1.2-1.634-2.188q-3.03-13.418-6.086-26.831c-.044-.192-.1-.382-.188-.719-.794.355-1.527.679-2.257,1.01l-34.971,15.848c-1.9.862-2.244.721-2.96-1.238q-1.616-4.42-3.229-8.842a2.434,2.434,0,0,0-.678-1.067c-.509,2.407-1.027,4.811-1.525,7.22q-1.522,7.365-3.023,14.733c-.2.962-.488,1.837-1.6,2.072s-1.753-.411-2.3-1.229Z" transform="translate(-169.347 -505.602)" fill="#00223d"/>
    <rect id="Rect치ngulo_26902" data-name="Rect치ngulo 26902" width="57.508" height="1.855" rx="0.928" transform="translate(46.233 62.06)" fill="#ffd54f"/>
  </g>
</svg>
